<svg id="Layer_1" data-name="Layer 1" xmlns="http://www.w3.org/2000/svg" viewBox="0 0 361 67"><defs><style>.cls-1{fill:#3b5f74;}</style></defs><title>bitcoin_logo</title><path class="cls-1" d="M7,41.17,6.77,10.06A2,2,0,0,1,8.21,8.41c1.51,0,3-.22,5.54-.22,4.39,0,9.07.65,11.81,4.25a13.52,13.52,0,0,1,1.87,7,16.61,16.61,0,0,1-5.69,12.39c0,.36.44.58,1.23,1.15a15,15,0,0,1,1.29.94c2.67,2.09,4,6,4,10.08,0,5.33-2.16,10.8-6,12.74-.22.15-.51.08-.79.15-2.09.14-4.11.21-7.85.21h-5a2,2,0,0,1-1.44-.79C7.2,51.25,7,46.28,7,41.17Zm6.63-13H14c5.47,0,6.26-5.84,6.26-10.37,0-2.52-2.09-3.46-4.53-3.46a8.83,8.83,0,0,0-1.88.14,2.07,2.07,0,0,0-.43,1.3V16Zm1.22,23a1.06,1.06,0,0,0,1.08,1c4,0,5-4.32,5-7.64v-.64A4.26,4.26,0,0,0,21,43c0-2.59-1.37-5.4-4.17-5.4h-.51c-.29,0-.57.07-.86.07l-.58.58Z"/><path class="cls-1" d="M53.42,46.28c0-5,.22-11,.58-19.22.21-4.32.43-9.22.79-15a1.09,1.09,0,0,1,1.08-1h4.68c.94,0,1.15.79,1.15,1.58l-1,42.92c0,.86-.21,1.66-1.36,1.8L54.86,58a1.19,1.19,0,0,1-1.08-1.23C53.57,53.41,53.42,50.17,53.42,46.28Z"/><path class="cls-1" d="M67.1,45a19.45,19.45,0,0,1,.14-2.09c.08-.29.36-.94.73-.94h1.22c.86,0,1.73,0,3,.07,2.74.44,0,9.08,3.53,9.44a10.41,10.41,0,0,0,1.44.07c2.09,0,2.3-.79,2.3-2.59V47.29a12.12,12.12,0,0,0-.14-1.51C77.11,30.73,66,32.6,66,21.3c0-5.62,4.18-11.09,9.87-11.09,7.48,0,8.85,6,8.85,9.36,0,1.8,0,3.81-1.87,4-.22,0-1.8.21-2.59.21h-.36c-.22,0-1.23-.21-1.23-.57-.36-5.12-1.58-5.76-2.44-5.76-2.31,0-3.6,1.58-3.6,4,0,5,11.16,8.78,13.46,24.05v.79c0,8.42-3.46,11.45-9.72,11.45-5.55,0-9.29-3.1-9.29-10Z"/><path class="cls-1" d="M111.6,10.93c.93-1,4.75-1.3,8.35-1.3s7.2.29,6.91.29a2.44,2.44,0,0,1,2.23,1c.07.86.22,4.1.22,5.18a1,1,0,0,1-.72.94c-.43,0-2.38.07-2.88.07-1.87,0-3.67-.29-5.47-.29-.87,0-1.3.14-1.44,1.08v8.28c0,.87.14,3.17.14,3.24l.65.51,4.39.57c.79.15,1.73.36,1.94,1.3a30.91,30.91,0,0,1,.29,3.45,3.62,3.62,0,0,1-.65,2.6,35.07,35.07,0,0,1-3.88.21c-.8,0-1.44-.07-2.09-.07-.43,0-.79.14-.79.65v1.22c0,4.83.36,9.8.36,14.84,0,1.87,0,3-2.09,3.16a23.29,23.29,0,0,1-3.75.29H113c-.28,0-.64,0-.79-.43-.93-1.3-.79-3.31-.86-4.75Z"/><path class="cls-1" d="M130.82,29.58c0-9.08.36-19.81,11.31-19.81,4.89,0,10.29,3.17,10.65,9,.22,3.68.29,7.28.29,11,0,4.61-.14,9.29-.22,14.19v.28c-.57,8.5-1.08,14.62-10.36,14.62-3.46,0-8.93-.65-10.09-5.33C131,48.3,130.82,37.64,130.82,29.58Zm11.31,22a2.81,2.81,0,0,0,2.8-2.52c.36-7.42.58-17.5.58-24.77V20.5c-.22-2.09-.86-3.17-3.53-3.17-3.31,0-3.38,2.24-3.38,4.47v.86c0,14.55,0,20.81.21,26.5A3.4,3.4,0,0,0,142.13,51.54Z"/><path class="cls-1" d="M158.32,11.29c.08-.8.15-1.8,1.08-2.09a38.72,38.72,0,0,1,5-.22h6.84c5.62.51,6.91,5.33,7.35,10.08,0,8.21-.22,11-.29,11.74-.94,4-3.6,4.39-4.54,5.62a.42.42,0,0,0,.07.28c1.88,4,5.48,12.17,5.48,18.65,0,1.23-4.25,1.44-5.12,1.59-1.15,0-1.29-1.73-1.51-2.67,0-2.88-3.17-15.69-6.33-15.69-.51,0-1.37.07-1.52.64v7.85c0,2.81-.07,5.55-.07,8.36,0,.86-.07,1.51-1,1.51h-5c-1.29,0-1.29-1.87-1.29-2.88Zm7.06,19.8c0,.93.94,1.22,1.8,1.22,1.94,0,3.24-.29,3.74-2.3a71.12,71.12,0,0,0,.29-7.78V18.7a2.81,2.81,0,0,0-3-2.3c-1.58,0-2.52.57-2.66,2.16Z"/><path class="cls-1" d="M204.69,41.17l-.22-31.11a2,2,0,0,1,1.44-1.65c1.52,0,3-.22,5.55-.22,4.39,0,9.07.65,11.81,4.25a13.52,13.52,0,0,1,1.87,7,16.61,16.61,0,0,1-5.69,12.39c0,.36.43.58,1.23,1.15A15,15,0,0,1,222,34c2.67,2.09,4,6,4,10.08,0,5.33-2.16,10.8-6,12.74-.22.15-.51.08-.8.15-2.08.14-4.1.21-7.84.21h-5a2,2,0,0,1-1.44-.79C204.91,51.25,204.69,46.28,204.69,41.17Zm6.63-13h.36c5.47,0,6.26-5.84,6.26-10.37,0-2.52-2.09-3.46-4.54-3.46a8.78,8.78,0,0,0-1.87.14,2,2,0,0,0-.43,1.3V16Zm1.22,23a1,1,0,0,0,1.08,1c4,0,5-4.32,5-7.64v-.64a4.26,4.26,0,0,0,.07-.94c0-2.59-1.37-5.4-4.18-5.4H214c-.29,0-.58.07-.86.07l-.58.58Z"/><path class="cls-1" d="M230.25,46.28c0-5,.22-11,.58-19.22.21-4.32.43-9.22.79-15a1.09,1.09,0,0,1,1.08-1h4.68c.93,0,1.15.79,1.15,1.58l-1,42.92c0,.86-.21,1.66-1.37,1.8l-4.46.65a1.19,1.19,0,0,1-1.08-1.23C230.39,53.41,230.25,50.17,230.25,46.28Z"/><path class="cls-1" d="M248.61,21.3V19.35c0-.14-.36-1.22-.79-1.22l-4.76.07c-1.29,0-1.29-.79-1.29-2v-.65c0-2.88.07-4.6,2.59-4.6h1.08c2.59,0,11.45.07,14,.14a15.81,15.81,0,0,1,2,.22c.79.07,1,1.22,1,2.3,0,.5-.07,1-.07,1.37V16c0,1.29-.65,2.45-1.58,2.45l-5.11.28.07,37.3c0,.8-.22,2-1.08,2h-4.83a1.26,1.26,0,0,1-1.29-1.37C248.54,44.91,248.61,33.1,248.61,21.3Z"/><path class="cls-1" d="M274.53,50.1a2.75,2.75,0,0,0,2.74-2.45c.14-.36.21-.36.21-.43.51-1.3.87-2.38,2-2.38s2.59.72,5.18,2.59c-.72,5.84-2.45,9.65-9.79,9.65-3.38,0-8.79-.65-9.94-5.11-1.37-5-1.51-15.34-1.51-23.11,0-8.72.36-19.09,11.09-19.09,4.82,0,10.08,3,10.44,8.72v.28c0,2.89-3.53,3.46-4.82,3.46h-.36c-2.67-.5-.51-5.26-4.68-5.26-.22,0-.44.08-.72.08-3.24.36-3.32,2.16-3.32,4.32v.86c0,14,0,20.09.22,25.56A3.33,3.33,0,0,0,274.53,50.1Z"/><path class="cls-1" d="M287.63,29.58c0-9.08.36-19.81,11.31-19.81,4.89,0,10.29,3.17,10.65,9,.22,3.68.29,7.28.29,11,0,4.61-.14,9.29-.21,14.19v.28c-.58,8.5-1.08,14.62-10.37,14.62-3.46,0-8.93-.65-10.08-5.33C287.78,48.3,287.63,37.64,287.63,29.58Zm11.31,22A2.82,2.82,0,0,0,301.75,49c.36-7.42.57-17.5.57-24.77V20.5c-.21-2.09-.86-3.17-3.53-3.17-3.31,0-3.38,2.24-3.38,4.47v.86c0,14.55,0,20.81.21,26.5A3.41,3.41,0,0,0,298.94,51.54Z"/><path class="cls-1" d="M314.2,46.28c0-5,.22-11,.58-19.22.21-4.32.43-9.22.79-15a1.09,1.09,0,0,1,1.08-1h4.68c.93,0,1.15.79,1.15,1.58l-1,42.92c0,.86-.21,1.66-1.37,1.8l-4.46.65a1.19,1.19,0,0,1-1.08-1.23C314.34,53.41,314.2,50.17,314.2,46.28Z"/><path class="cls-1" d="M334.36,23.17c-.14,0-.22,1.44-.22,3.81,0,6.12.36,18.58.36,30,0,1.58-1.22,1.8-2.45,1.8-.43,0-.86-.07-1.29-.07s-.87.07-1.37.07c-1,0-2.09-.22-2.3-1L327,37.06c0-6-.21-12-.21-18,0-1.08.07-6,.07-7A1.12,1.12,0,0,1,328,10.93h8.43c.57,0,1.29.21,1.29.79l9.94,33.12L346,11.79a1.51,1.51,0,0,1,1.3-.94h5a1.27,1.27,0,0,1,1.08.58v.43c0,2.52.43,9.94.43,14.91,0,2.3.36,14.76.36,23.26,0,4.6-.14,8.13-.43,8.13h-7.34A1.7,1.7,0,0,1,345,57.08Z"/></svg>